<mxfile host="65bd71144e">
    <diagram id="Ie5TtFXexI4R4nZkAFvX" name="Page-1">
        <mxGraphModel dx="621" dy="520" grid="1" gridSize="10" guides="1" tooltips="1" connect="1" arrows="1" fold="1" page="1" pageScale="1" pageWidth="850" pageHeight="1100" math="0" shadow="0">
            <root>
                <mxCell id="0"/>
                <mxCell id="1" parent="0"/>
                <mxCell id="2" value="Class-skapar ett object&lt;br&gt;class= bil object=toyota" style="whiteSpace=wrap;html=1;aspect=fixed;" vertex="1" parent="1">
                    <mxGeometry x="220" y="60" width="450" height="450" as="geometry"/>
                </mxCell>
                <mxCell id="3" value="Attribut/data&lt;br&gt;(fält)" style="whiteSpace=wrap;html=1;aspect=fixed;" vertex="1" parent="1">
                    <mxGeometry x="260" y="90" width="80" height="80" as="geometry"/>
                </mxCell>
                <mxCell id="4" value="Properties" style="whiteSpace=wrap;html=1;aspect=fixed;" vertex="1" parent="1">
                    <mxGeometry x="530" y="90" width="80" height="80" as="geometry"/>
                </mxCell>
                <mxCell id="5" value="Metoder/&lt;br&gt;funktioner" style="whiteSpace=wrap;html=1;aspect=fixed;" vertex="1" parent="1">
                    <mxGeometry x="260" y="220" width="80" height="80" as="geometry"/>
                </mxCell>
                <mxCell id="8" value="Skapar gränssnitt till fält" style="rounded=0;whiteSpace=wrap;html=1;" vertex="1" parent="1">
                    <mxGeometry x="390" y="120" width="140" height="20" as="geometry"/>
                </mxCell>
                <mxCell id="9" value="" style="triangle;whiteSpace=wrap;html=1;rotation=-180;" vertex="1" parent="1">
                    <mxGeometry x="350" y="100" width="40" height="60" as="geometry"/>
                </mxCell>
            </root>
        </mxGraphModel>
    </diagram>
</mxfile>